# xmcd CD database file
#
# Track frame offsets:
#	150
#	26839
#	40990
#	59027
#
# Disc length: 982 seconds
#
# Revision: 0
# Processed by: cddbd v1.5.1PL0 Copyright (c) Steve Scherf et al.
# Submitted via: CDex 1.51
#
DISCID=3603d404
DTITLE=Krageknöpp - Sanitätshausblues
DYEAR=2000
DGENRE=Blues
TTITLE0=Sanitätshaus-Stolze-Blues
TTITLE1=Welde Zigge
TTITLE2=Bliev bei mir dies Naach
TTITLE3=Kammerjäjer Blues
EXTD=YEAR: 2000
EXTT0=
EXTT1=
EXTT2=
EXTT3=
PLAYORDER=
